Coordinates
version=1
nRows=38
nColumns=12
inDegrees=yes

Units are S.I. units (second, meters, Newtons, ...)
Angles are in degrees

endheader
time	SC_y	SC_z	SC_x	AC_y	AC_z	AC_x	GH_y	GH_z	GH_yy	EL_x	PS_y
       0.0              -17.92          20.78          81.19          58.13         -2.642         -19.53          90.46          19.44         -70.64          39.59          88.11
    0.0114              -17.92          20.78          81.18          58.13         -2.643         -19.52          90.43          19.43         -70.64           39.6          88.11
   0.02281              -17.93          20.77          81.17          58.13         -2.645         -19.52           90.4          19.42         -70.64          39.61           88.1
   0.03421              -17.93          20.77          81.16          58.13         -2.647         -19.51          90.38          19.42         -70.64          39.61           88.1
   0.04561              -17.93          20.77          81.15          58.13         -2.649          -19.5          90.34          19.41         -70.65          39.62          88.09
   0.05701              -17.94          20.76          81.14          58.13         -2.651          -19.5          90.31           19.4         -70.65          39.63          88.09
   0.06842              -17.94          20.76          81.12          58.12         -2.653         -19.49          90.28           19.4         -70.65          39.64          88.09
   0.07982              -17.95          20.76          81.11          58.12         -2.655         -19.48          90.24          19.39         -70.65          39.65          88.08
   0.09122              -17.95          20.75          81.09          58.12         -2.658         -19.47           90.2          19.38         -70.65          39.66          88.08
    0.1026              -17.96          20.75          81.08          58.12          -2.66         -19.47          90.16          19.37         -70.65          39.67          88.07
     0.114              -17.96          20.74          81.06          58.12         -2.663         -19.46          90.11          19.36         -70.66          39.68          88.06
    0.1254              -17.97          20.73          81.04          58.12         -2.666         -19.45          90.06          19.35         -70.66           39.7          88.06
    0.1368              -17.98          20.73          81.02          58.12          -2.67         -19.44          90.01          19.34         -70.66          39.71          88.05
    0.1482              -17.98          20.72           81.0          58.12         -2.673         -19.42          89.95          19.32         -70.66          39.73          88.04
    0.1596              -17.99          20.71          80.98          58.12         -2.677         -19.41          89.89          19.31         -70.67          39.74          88.04
     0.171               -18.0          20.71          80.95          58.12         -2.682          -19.4          89.82          19.29         -70.67          39.76          88.03
    0.1824              -18.01           20.7          80.92          58.12         -2.686         -19.38          89.75          19.28         -70.67          39.78          88.02
    0.1938              -18.02          20.69          80.89          58.12         -2.691         -19.37          89.67          19.26         -70.68           39.8          88.01
    0.2052              -18.03          20.68          80.86          58.12         -2.697         -19.35          89.58          19.24         -70.68          39.83          87.99
    0.2166              -18.04          20.67          80.83          58.12         -2.703         -19.33          89.49          19.22         -70.69          39.85          87.98
    0.2281              -18.05          20.66          80.79          58.12         -2.709         -19.31          89.38           19.2         -70.69          39.88          87.97
    0.2395              -18.07          20.64          80.74          58.12         -2.717         -19.28          89.27          19.17          -70.7          39.91          87.95
    0.2509              -18.08          20.63           80.7          58.12         -2.725         -19.26          89.14          19.14          -70.7          39.94          87.94
    0.2623               -18.1          20.61          80.64          58.12         -2.733         -19.23           89.0          19.11         -70.71          39.98          87.92
    0.2737              -18.12          20.59          80.58          58.12         -2.743          -19.2          88.84          19.07         -70.72          40.02           87.9
    0.2851              -18.14          20.57          80.52          58.12         -2.754         -19.16          88.67          19.04         -70.73          40.07          87.87
    0.2965              -18.17          20.55          80.44          58.12         -2.767         -19.12          88.47          18.99         -70.73          40.12          87.85
    0.3079              -18.19          20.52          80.36          58.11         -2.781         -19.07          88.25          18.94         -70.75          40.18          87.82
    0.3193              -18.22           20.5          80.27          58.11         -2.796         -19.02           88.0          18.89         -70.76          40.25          87.79
    0.3307              -18.26          20.46          80.16          58.11         -2.814         -18.96          87.72          18.82         -70.77          40.32          87.75
    0.3421               -18.3          20.42          80.04          58.11         -2.835          -18.9           87.4          18.75         -70.79          40.41          87.71
    0.3535              -18.34          20.38           79.9          58.11         -2.858         -18.82          87.03          18.67          -70.8          40.51          87.66
    0.3649               -18.4          20.33          79.74          58.11         -2.885         -18.73           86.6          18.57         -70.82          40.62           87.6
    0.3763              -18.46          20.27          79.55           58.1         -2.916         -18.63           86.1          18.46         -70.85          40.75          87.54
    0.3877              -18.53          20.21          79.33           58.1         -2.953         -18.51          85.52          18.33         -70.87          40.91          87.46
    0.3991              -18.62          20.13          79.08           58.1         -2.996         -18.37          84.83          18.17         -70.91          41.09          87.37
    0.4105              -18.72          20.03          78.77          58.09         -3.048          -18.2          84.02          17.99         -70.95          41.31          87.26
    0.4219              -18.84          19.92           78.4          58.09         -3.109          -18.0          83.04          17.77         -70.99          41.57          87.13
